<svg xmlns="http://www.w3.org/2000/svg" viewBox="0 0 300 150">
  <defs>
    <linearGradient id="bg" x1="0%" y1="0%" x2="100%" y2="100%">
      <stop offset="0%" style="stop-color:#f7df1e;stop-opacity:1" />
      <stop offset="100%" style="stop-color:#f0b400;stop-opacity:1" />
    </linearGradient>
    <linearGradient id="code" x1="0%" y1="0%" x2="100%" y2="100%">
      <stop offset="0%" style="stop-color:#000000;stop-opacity:1" />
      <stop offset="100%" style="stop-color:#333333;stop-opacity:1" />
    </linearGradient>
  </defs>
  
  <!-- Background -->
  <rect width="300" height="150" fill="url(#bg)" rx="8"/>
  
  <!-- Code blocks -->
  <g fill="url(#code)" opacity="0.9">
    <!-- Function definition -->
    <rect x="20" y="20" width="80" height="8" rx="2"/>
    <rect x="20" y="35" width="60" height="6" rx="2"/>
    <rect x="20" y="45" width="40" height="6" rx="2"/>
    
    <!-- Variable -->
    <rect x="120" y="20" width="70" height="8" rx="2"/>
    <rect x="120" y="35" width="50" height="6" rx="2"/>
    
    <!-- Object -->
    <rect x="210" y="20" width="70" height="8" rx="2"/>
    <rect x="210" y="35" width="60" height="6" rx="2"/>
    <rect x="210" y="45" width="50" height="6" rx="2"/>
    
    <!-- Arrow function -->
    <rect x="20" y="70" width="90" height="8" rx="2"/>
    <rect x="20" y="85" width="70" height="6" rx="2"/>
    
    <!-- Array -->
    <rect x="130" y="70" width="80" height="8" rx="2"/>
    <rect x="130" y="85" width="60" height="6" rx="2"/>
    
    <!-- Promise -->
    <rect x="230" y="70" width="60" height="8" rx="2"/>
    <rect x="230" y="85" width="40" height="6" rx="2"/>
    
    <!-- Console log -->
    <rect x="20" y="110" width="100" height="8" rx="2"/>
    <rect x="20" y="125" width="80" height="6" rx="2"/>
    
    <!-- Template literal -->
    <rect x="140" y="110" width="90" height="8" rx="2"/>
    <rect x="140" y="125" width="70" height="6" rx="2"/>
  </g>
  
  <!-- JS Logo -->
  <text x="250" y="140" font-family="Arial, sans-serif" font-size="24" font-weight="bold" fill="#000000">JS</text>
</svg> 